<?xml version="1.0" encoding="UTF-8" standalone="no"?>
<!-- Created with Inkscape (http://www.inkscape.org/) -->
<svg
   xmlns:dc="http://purl.org/dc/elements/1.1/"
   xmlns:cc="http://web.resource.org/cc/"
   xmlns:rdf="http://www.w3.org/1999/02/22-rdf-syntax-ns#"
   xmlns:svg="http://www.w3.org/2000/svg"
   xmlns="http://www.w3.org/2000/svg"
   xmlns:sodipodi="http://sodipodi.sourceforge.net/DTD/sodipodi-0.dtd"
   xmlns:inkscape="http://www.inkscape.org/namespaces/inkscape"
   id="svg2"
   sodipodi:version="0.32"
   inkscape:version="0.44"
   width="600"
   height="600"
   version="1.0"
   sodipodi:docbase="C:\Documents and Settings\Pomost\Pulpit"
   sodipodi:docname="Dharma Wheel.svg">
  <metadata
     id="metadata7">
    <rdf:RDF>
      <cc:Work
         rdf:about="">
        <dc:format>image/svg+xml</dc:format>
        <dc:type
           rdf:resource="http://purl.org/dc/dcmitype/StillImage" />
      </cc:Work>
    </rdf:RDF>
  </metadata>
  <defs
     id="defs5" />
  <sodipodi:namedview
     inkscape:window-height="749"
     inkscape:window-width="1024"
     inkscape:pageshadow="2"
     inkscape:pageopacity="0.0"
     guidetolerance="10.0"
     gridtolerance="10.0"
     objecttolerance="10.0"
     borderopacity="1.0"
     bordercolor="#666666"
     pagecolor="#ffffff"
     id="base"
     showguides="true"
     inkscape:guide-bbox="true"
     inkscape:zoom="0.92333323"
     inkscape:cx="300.00001"
     inkscape:cy="300.00001"
     inkscape:window-x="-4"
     inkscape:window-y="-4"
     inkscape:current-layer="svg2"
     width="600px"
     height="600px" />
  <path
     style="fill:white;fill-opacity:1;fill-rule:evenodd;stroke:black;stroke-width:2.24497199;stroke-linecap:butt;stroke-linejoin:miter;stroke-miterlimit:4;stroke-dasharray:none;stroke-opacity:1"
     d="M 162.52781,271.16015 C 151.28643,271.79162 145.96105,283.20959 112.73152,283.92509 L 111.98065,298.75809 L 229.77208,298.45059 L 229.91239,284.55938 C 207.98788,284.81113 184.46141,281.4393 162.52781,271.16015 z "
     id="path3649"
     sodipodi:nodetypes="cccccc" />
  <path
     style="fill:white;fill-opacity:1;fill-rule:evenodd;stroke:black;stroke-width:2.24497199;stroke-linecap:butt;stroke-linejoin:miter;stroke-miterlimit:4;stroke-dasharray:none;stroke-opacity:1"
     d="M 162.52781,326.12984 C 151.28643,325.49838 145.96105,314.0804 112.73152,313.36491 L 111.98064,298.53191 L 229.77208,298.8394 L 229.91239,312.73061 C 207.9879,312.47886 184.46141,315.8507 162.52781,326.12984 z "
     id="path10789"
     sodipodi:nodetypes="cccccc" />
  <path
     style="fill:white;fill-opacity:1;fill-rule:evenodd;stroke:black;stroke-width:2.24497199;stroke-linecap:butt;stroke-linejoin:miter;stroke-miterlimit:4;stroke-dasharray:none;stroke-opacity:1"
     d="M 160.8125,271.90625 C 160.04251,288.12372 158.72854,292.79349 147.75,298.4375 C 147.16729,298.60206 147.16682,298.68917 147.3125,298.75 C 147.16682,298.81083 147.16729,298.89792 147.75,299.0625 C 158.72854,304.70652 160.04251,309.37629 160.8125,325.59375 C 162.12768,309.21046 168.77561,301.90622 173.78125,299.0625 C 174.36396,298.89793 174.36443,298.81083 174.21875,298.75 C 174.36443,298.68917 174.36396,298.60207 173.78125,298.4375 C 168.77561,295.59377 162.12768,288.28954 160.8125,271.90625 z "
     id="path10785"
     sodipodi:nodetypes="ccccccccc" />
  <path
     style="fill:white;fill-opacity:1;fill-rule:evenodd;stroke:black;stroke-width:2.24497199;stroke-linecap:butt;stroke-linejoin:miter;stroke-miterlimit:4;stroke-dasharray:none;stroke-opacity:1"
     d="M 437.47223,273.86995 C 448.71362,274.50141 454.039,285.91938 487.26854,286.63488 L 488.01942,301.46788 L 370.22798,301.16039 L 370.08767,287.26917 C 392.01218,287.52093 415.53865,284.14909 437.47223,273.86995 z "
     id="path10822"
     sodipodi:nodetypes="cccccc" />
  <path
     style="fill:white;fill-opacity:1;fill-rule:evenodd;stroke:black;stroke-width:2.24497199;stroke-linecap:butt;stroke-linejoin:miter;stroke-miterlimit:4;stroke-dasharray:none;stroke-opacity:1"
     d="M 437.47226,328.83963 C 448.71362,328.20817 454.039,316.7902 487.26854,316.0747 L 488.01942,301.2417 L 370.22798,301.54919 L 370.08767,315.44041 C 392.01216,315.18866 415.53865,318.56049 437.47226,328.83963 z "
     id="path10824"
     sodipodi:nodetypes="cccccc" />
  <path
     style="fill:white;fill-opacity:1;fill-rule:evenodd;stroke:black;stroke-width:2.24497199;stroke-linecap:butt;stroke-linejoin:miter;stroke-miterlimit:4;stroke-dasharray:none;stroke-opacity:1"
     d="M 439.1875,274.625 C 437.87233,291.00829 431.22441,298.28128 426.21875,301.125 C 425.70887,301.26899 425.66037,301.3756 425.75,301.4375 C 425.75,301.4375 425.78125,301.46875 425.78125,301.46875 C 425.66335,301.53032 425.67245,301.62697 426.21875,301.78125 C 431.22441,304.62498 437.87233,311.89796 439.1875,328.28125 C 439.95749,312.06377 441.27146,307.42527 452.25,301.78125 C 452.79629,301.62697 452.8054,301.53032 452.6875,301.46875 C 452.67964,301.46465 452.69661,301.4413 452.6875,301.4375 C 452.8054,301.37593 452.79629,301.27928 452.25,301.125 C 441.27146,295.48098 439.95749,290.84246 439.1875,274.625 z "
     id="path10826"
     sodipodi:nodetypes="cccccccsscc" />
  <path
     style="fill:white;fill-opacity:1;fill-rule:evenodd;stroke:black;stroke-width:2.24497199;stroke-linecap:butt;stroke-linejoin:miter;stroke-miterlimit:4;stroke-dasharray:none;stroke-opacity:1"
     d="M 271.16029,437.47221 C 271.79176,448.71359 283.20973,454.03897 283.92523,487.2685 L 298.75823,488.01937 L 298.45073,370.22794 L 284.55952,370.08763 C 284.81127,392.01214 281.43944,415.53861 271.16029,437.47221 z "
     id="path10859"
     sodipodi:nodetypes="cccccc" />
  <path
     style="fill:white;fill-opacity:1;fill-rule:evenodd;stroke:black;stroke-width:2.24497199;stroke-linecap:butt;stroke-linejoin:miter;stroke-miterlimit:4;stroke-dasharray:none;stroke-opacity:1"
     d="M 326.12998,437.47221 C 325.49852,448.71359 314.08054,454.03897 313.36505,487.2685 L 298.53205,488.01938 L 298.83954,370.22794 L 312.73075,370.08763 C 312.479,392.01212 315.85084,415.53861 326.12998,437.47221 z "
     id="path10861"
     sodipodi:nodetypes="cccccc" />
  <path
     style="fill:white;fill-opacity:1;fill-rule:evenodd;stroke:black;stroke-width:2.24497199;stroke-linecap:butt;stroke-linejoin:miter;stroke-miterlimit:4;stroke-dasharray:none;stroke-opacity:1"
     d="M 298.625,425.71875 C 298.57215,425.77338 298.51979,425.92739 298.4375,426.21875 C 295.59378,431.2244 288.28954,437.87232 271.90625,439.1875 C 288.12374,439.9575 292.79349,441.27146 298.4375,452.25 C 298.60207,452.83271 298.68917,452.83318 298.75,452.6875 C 298.81083,452.83318 298.89793,452.83271 299.0625,452.25 C 304.70652,441.27146 309.37628,439.9575 325.59375,439.1875 C 309.21046,437.87232 301.90624,431.2244 299.0625,426.21875 C 298.89793,425.63603 298.81083,425.63557 298.75,425.78125 C 298.71958,425.70841 298.67785,425.66412 298.625,425.71875 z "
     id="path10863"
     sodipodi:nodetypes="ccccccccsc" />
  <path
     style="fill:white;fill-opacity:1;fill-rule:evenodd;stroke:black;stroke-width:2.24497199;stroke-linecap:butt;stroke-linejoin:miter;stroke-miterlimit:4;stroke-dasharray:none;stroke-opacity:1"
     d="M 273.87009,162.52777 C 274.50155,151.28638 285.91952,145.961 286.63502,112.73146 L 301.46802,111.98058 L 301.16053,229.77202 L 287.26931,229.91233 C 287.52107,207.98782 284.14923,184.46135 273.87009,162.52777 z "
     id="path10869"
     sodipodi:nodetypes="cccccc" />
  <path
     style="fill:white;fill-opacity:1;fill-rule:evenodd;stroke:black;stroke-width:2.24497199;stroke-linecap:butt;stroke-linejoin:miter;stroke-miterlimit:4;stroke-dasharray:none;stroke-opacity:1"
     d="M 328.83977,162.52774 C 328.20831,151.28638 316.79034,145.961 316.07484,112.73146 L 301.24184,111.98058 L 301.54933,229.77202 L 315.44055,229.91233 C 315.1888,207.98784 318.56063,184.46135 328.83977,162.52774 z "
     id="path10871"
     sodipodi:nodetypes="cccccc" />
  <path
     style="fill:white;fill-opacity:1;fill-rule:evenodd;stroke:black;stroke-width:2.24497199;stroke-linecap:butt;stroke-linejoin:miter;stroke-miterlimit:4;stroke-dasharray:none;stroke-opacity:1"
     d="M 301.125,147.75 C 295.48098,158.72854 290.84247,160.04253 274.625,160.8125 C 291.00829,162.12767 298.28127,168.77559 301.125,173.78125 C 301.28956,174.36396 301.40792,174.36443 301.46875,174.21875 C 301.52958,174.36443 301.61669,174.36396 301.78125,173.78125 C 304.62497,168.77559 311.89796,162.12767 328.28125,160.8125 C 312.06376,160.04253 307.42527,158.72854 301.78125,147.75 C 301.61668,147.16728 301.52958,147.16682 301.46875,147.3125 C 301.25657,147.06358 301.21714,147.63273 301.125,147.75 z "
     id="path10873"
     sodipodi:nodetypes="cccccccsc" />
  <path
     style="fill:white;fill-opacity:1;fill-rule:evenodd;stroke:black;stroke-width:2.24497151;stroke-linecap:butt;stroke-linejoin:miter;stroke-miterlimit:4;stroke-dasharray:none;stroke-opacity:1"
     d="M 182.3997,376.66333 C 174.89736,385.0587 179.20547,396.89804 156.21457,420.90081 L 166.17214,431.92027 L 249.24583,348.41171 L 239.52248,338.48993 C 224.19752,354.17091 205.17755,368.42239 182.3997,376.66333 z "
     id="path10910"
     sodipodi:nodetypes="cccccc" />
  <path
     style="fill:white;fill-opacity:1;fill-rule:evenodd;stroke:black;stroke-width:2.24497151;stroke-linecap:butt;stroke-linejoin:miter;stroke-miterlimit:4;stroke-dasharray:none;stroke-opacity:1"
     d="M 221.26914,415.53278 C 212.87377,423.03512 201.03443,418.72701 177.03167,441.71791 L 166.01221,431.76034 L 249.52076,348.68664 L 259.44255,358.41 C 243.76158,373.73494 229.51008,392.75493 221.26914,415.53278 z "
     id="path10912"
     sodipodi:nodetypes="cccccc" />
  <path
     style="fill:white;fill-opacity:1;fill-rule:evenodd;stroke:black;stroke-width:2.24497151;stroke-linecap:butt;stroke-linejoin:miter;stroke-miterlimit:4;stroke-dasharray:none;stroke-opacity:1"
     d="M 181.71875,378.40625 C 192.64177,390.41819 195.02207,394.65233 191.25,406.40625 C 190.95432,406.93467 191.01023,406.99749 191.15625,406.9375 C 191.09625,407.08353 191.15909,407.13941 191.6875,406.84375 C 203.44142,403.07167 207.6443,405.45197 219.65625,416.375 C 209.00149,403.86029 208.56504,393.98784 210.09375,388.4375 C 210.36725,387.94873 210.31049,387.87047 210.1875,387.90625 C 210.2475,387.76023 210.18466,387.70433 209.65625,388 C 204.1059,389.5287 194.23345,389.06101 181.71875,378.40625 z "
     id="path10914"
     sodipodi:nodetypes="ccccccccc" />
  <path
     style="fill:white;fill-opacity:1;fill-rule:evenodd;stroke:black;stroke-width:2.24497151;stroke-linecap:butt;stroke-linejoin:miter;stroke-miterlimit:4;stroke-dasharray:none;stroke-opacity:1"
     d="M 378.7309,184.16441 C 387.12627,176.66207 398.96561,180.97018 422.96838,157.97928 L 433.98784,167.93684 L 350.47928,251.01054 L 340.5575,241.28718 C 356.23848,225.96223 370.48997,206.94225 378.7309,184.16441 z "
     id="path10920"
     sodipodi:nodetypes="cccccc" />
  <path
     style="fill:white;fill-opacity:1;fill-rule:evenodd;stroke:black;stroke-width:2.24497151;stroke-linecap:butt;stroke-linejoin:miter;stroke-miterlimit:4;stroke-dasharray:none;stroke-opacity:1"
     d="M 417.60035,223.03384 C 425.10268,214.63848 420.79457,202.79914 443.78547,178.79637 L 433.82791,167.77691 L 350.75421,251.28547 L 360.47757,261.20725 C 375.80251,245.52628 394.8225,231.27478 417.60035,223.03384 z "
     id="path10922"
     sodipodi:nodetypes="cccccc" />
  <path
     style="fill:white;fill-opacity:1;fill-rule:evenodd;stroke:black;stroke-width:2.24497151;stroke-linecap:butt;stroke-linejoin:miter;stroke-miterlimit:4;stroke-dasharray:none;stroke-opacity:1"
     d="M 380.46875,183.46875 C 391.12351,195.98345 391.59123,205.8559 390.0625,211.40625 C 389.76683,211.93466 389.82273,211.9975 389.96875,211.9375 C 389.90875,212.08352 389.97159,212.13943 390.5,211.84375 C 396.05034,210.31504 405.9228,210.78273 418.4375,221.4375 C 407.51447,209.42556 405.13417,205.19142 408.90625,193.4375 C 409.20193,192.90909 409.14602,192.84625 409,192.90625 C 409.03308,192.78588 408.95312,192.72896 408.46875,193 C 396.71482,196.77208 392.48068,194.39178 380.46875,183.46875 z "
     id="path10924"
     sodipodi:nodetypes="ccccccccc" />
  <path
     style="fill:white;fill-opacity:1;fill-rule:evenodd;stroke:black;stroke-width:2.24497151;stroke-linecap:butt;stroke-linejoin:miter;stroke-miterlimit:4;stroke-dasharray:none;stroke-opacity:1"
     d="M 376.81483,417.4489 C 385.2102,424.95124 397.04954,420.64313 421.05231,443.63403 L 432.07177,433.67646 L 348.56321,350.60277 L 338.64143,360.32612 C 354.32241,375.65108 368.57389,394.67105 376.81483,417.4489 z "
     id="path10932"
     sodipodi:nodetypes="cccccc" />
  <path
     style="fill:white;fill-opacity:1;fill-rule:evenodd;stroke:black;stroke-width:2.24497151;stroke-linecap:butt;stroke-linejoin:miter;stroke-miterlimit:4;stroke-dasharray:none;stroke-opacity:1"
     d="M 415.68428,378.57946 C 423.18662,386.97483 418.87851,398.81417 441.86941,422.81693 L 431.91184,433.83639 L 348.83814,350.32784 L 358.5615,340.40605 C 373.88644,356.08702 392.90643,370.33852 415.68428,378.57946 z "
     id="path10934"
     sodipodi:nodetypes="cccccc" />
  <path
     style="fill:white;fill-opacity:1;fill-rule:evenodd;stroke:black;stroke-width:2.24497151;stroke-linecap:butt;stroke-linejoin:miter;stroke-miterlimit:4;stroke-dasharray:none;stroke-opacity:1"
     d="M 416.53125,380.1875 C 404.01654,390.84226 394.1441,391.27871 388.59375,389.75 C 388.10498,389.4765 388.02672,389.53326 388.0625,389.65625 C 387.91648,389.59625 387.82933,389.69034 388.125,390.21875 C 389.65371,395.7691 389.21726,405.6103 378.5625,418.125 C 390.57445,407.20198 394.77733,404.85293 406.53125,408.625 C 407.05966,408.92067 407.15375,408.83352 407.09375,408.6875 C 407.21674,408.72328 407.27349,408.64502 407,408.15625 C 403.22792,396.40233 405.60823,392.19945 416.53125,380.1875 z "
     id="path10936"
     sodipodi:nodetypes="ccccccccc" />
  <path
     style="fill:white;fill-opacity:1;fill-rule:evenodd;stroke:black;stroke-width:2.24497151;stroke-linecap:butt;stroke-linejoin:miter;stroke-miterlimit:4;stroke-dasharray:none;stroke-opacity:1"
     d="M 184.31591,221.1177 C 176.81357,212.72233 181.12168,200.88299 158.13078,176.88022 L 168.08834,165.86076 L 251.16204,249.36932 L 241.43868,259.2911 C 226.11373,243.61012 207.09375,229.35863 184.31591,221.1177 z "
     id="path10942"
     sodipodi:nodetypes="cccccc" />
  <path
     style="fill:white;fill-opacity:1;fill-rule:evenodd;stroke:black;stroke-width:2.24497151;stroke-linecap:butt;stroke-linejoin:miter;stroke-miterlimit:4;stroke-dasharray:none;stroke-opacity:1"
     d="M 223.18534,182.24825 C 214.78998,174.74592 202.95064,179.05403 178.94787,156.06313 L 167.92841,166.02069 L 251.43697,249.09439 L 261.35875,239.37103 C 245.67778,224.04609 231.42628,205.0261 223.18534,182.24825 z "
     id="path10944"
     sodipodi:nodetypes="cccccc" />
  <path
     style="fill:white;fill-opacity:1;fill-rule:evenodd;stroke:black;stroke-width:2.24497151;stroke-linecap:butt;stroke-linejoin:miter;stroke-miterlimit:4;stroke-dasharray:none;stroke-opacity:1"
     d="M 221.59375,181.40625 C 209.58181,192.32928 205.34767,194.70958 193.59375,190.9375 C 193.06534,190.64182 193.0025,190.69773 193.0625,190.84375 C 192.91648,190.78375 192.86057,190.84659 193.15625,191.375 C 196.92833,203.12893 194.54804,207.36307 183.625,219.375 C 196.1397,208.72024 206.01215,208.25253 211.5625,209.78125 C 212.09091,210.07692 212.15375,210.02102 212.09375,209.875 C 212.23977,209.935 212.29568,209.87216 212,209.34375 C 210.47129,203.79341 210.93898,193.92095 221.59375,181.40625 z "
     id="path10946"
     sodipodi:nodetypes="ccccccccc" />
  <path
     sodipodi:type="arc"
     style="fill:white;fill-opacity:1;fill-rule:evenodd;stroke:black;stroke-width:0.93568957;stroke-miterlimit:4;stroke-dasharray:none;stroke-dashoffset:0;stroke-opacity:1"
     id="path29903"
     sodipodi:cx="142.54568"
     sodipodi:cy="38.985416"
     sodipodi:rx="9.2681503"
     sodipodi:ry="8.4638891"
     d="M 151.81384 38.985416 A 9.2681503 8.4638891 0 1 1  133.27753,38.985416 A 9.2681503 8.4638891 0 1 1  151.81384 38.985416 z"
     transform="matrix(2.292808,0,0,2.510676,-26.82984,-75.50722)" />
  <path
     style="fill:white;fill-opacity:1;fill-rule:evenodd;stroke:black;stroke-width:2.1005969;stroke-miterlimit:4;stroke-dasharray:none;stroke-dashoffset:0;stroke-opacity:1"
     d="M 299.96495,1.0502504 C 291.87849,1.0502504 284.89454,5.551215 281.30362,12.204955 C 291.77558,13.520603 299.89479,22.425929 299.89479,33.251568 C 299.89479,36.917207 298.93628,40.342089 297.29904,43.353942 C 298.17301,43.463568 299.06141,43.494252 299.96495,43.494252 C 300.86848,43.494252 301.75688,43.463568 302.63085,43.353942 C 300.99362,40.342089 300.0351,36.917207 300.0351,33.251568 C 300.0351,22.401916 308.19082,13.489555 318.69643,12.204955 C 315.10576,5.5503641 308.05203,1.0502504 299.96495,1.0502504 z "
     id="path30819" />
  <path
     sodipodi:type="arc"
     style="fill:white;fill-opacity:1;fill-rule:evenodd;stroke:black;stroke-width:0.93568957;stroke-miterlimit:4;stroke-dasharray:none;stroke-dashoffset:0;stroke-opacity:1"
     id="path28129"
     sodipodi:cx="142.54568"
     sodipodi:cy="38.985416"
     sodipodi:rx="9.2681503"
     sodipodi:ry="8.4638891"
     d="M 151.81384 38.985416 A 9.2681503 8.4638891 0 1 1  133.27753,38.985416 A 9.2681503 8.4638891 0 1 1  151.81384 38.985416 z"
     transform="matrix(2.292808,0,0,2.510676,-48.15012,-51.09173)" />
  <path
     sodipodi:type="arc"
     style="fill:white;fill-opacity:1;fill-rule:evenodd;stroke:black;stroke-width:0.93568957;stroke-miterlimit:4;stroke-dasharray:none;stroke-dashoffset:0;stroke-opacity:1"
     id="path29901"
     sodipodi:cx="142.54568"
     sodipodi:cy="38.985416"
     sodipodi:rx="9.2681503"
     sodipodi:ry="8.4638891"
     d="M 151.81384 38.985416 A 9.2681503 8.4638891 0 1 1  133.27753,38.985416 A 9.2681503 8.4638891 0 1 1  151.81384 38.985416 z"
     transform="matrix(2.292808,0,0,2.510676,-5.509562,-51.09173)" />
  <path
     sodipodi:type="arc"
     style="fill:white;fill-opacity:1;fill-rule:evenodd;stroke:black;stroke-width:0.93568957;stroke-miterlimit:4;stroke-dasharray:none;stroke-dashoffset:0;stroke-opacity:1"
     id="path30830"
     sodipodi:cx="142.54568"
     sodipodi:cy="38.985416"
     sodipodi:rx="9.2681503"
     sodipodi:ry="8.4638891"
     d="M 151.81384 38.985416 A 9.2681503 8.4638891 0 1 1  133.27753,38.985416 A 9.2681503 8.4638891 0 1 1  151.81384 38.985416 z"
     transform="matrix(2.292808,0,0,-2.510676,-26.82984,675.5072)" />
  <path
     style="fill:white;fill-opacity:1;fill-rule:evenodd;stroke:black;stroke-width:2.1005969;stroke-miterlimit:4;stroke-dasharray:none;stroke-dashoffset:0;stroke-opacity:1"
     d="M 299.96495,598.94972 C 291.87849,598.94972 284.89454,594.44876 281.30362,587.79501 C 291.77558,586.47937 299.89479,577.57404 299.89479,566.7484 C 299.89479,563.08276 298.93628,559.65788 297.29904,556.64603 C 298.17301,556.5364 299.06141,556.50572 299.96495,556.50572 C 300.86848,556.50572 301.75688,556.5364 302.63085,556.64603 C 300.99362,559.65788 300.0351,563.08276 300.0351,566.7484 C 300.0351,577.59805 308.19082,586.51042 318.69643,587.79501 C 315.10576,594.44961 308.05203,598.94972 299.96495,598.94972 z "
     id="path30832" />
  <path
     sodipodi:type="arc"
     style="fill:white;fill-opacity:1;fill-rule:evenodd;stroke:black;stroke-width:0.93568957;stroke-miterlimit:4;stroke-dasharray:none;stroke-dashoffset:0;stroke-opacity:1"
     id="path30836"
     sodipodi:cx="142.54568"
     sodipodi:cy="38.985416"
     sodipodi:rx="9.2681503"
     sodipodi:ry="8.4638891"
     d="M 151.81384 38.985416 A 9.2681503 8.4638891 0 1 1  133.27753,38.985416 A 9.2681503 8.4638891 0 1 1  151.81384 38.985416 z"
     transform="matrix(2.292808,0,0,-2.510676,-48.15012,651.0917)" />
  <path
     sodipodi:type="arc"
     style="fill:white;fill-opacity:1;fill-rule:evenodd;stroke:black;stroke-width:0.93568957;stroke-miterlimit:4;stroke-dasharray:none;stroke-dashoffset:0;stroke-opacity:1"
     id="path30838"
     sodipodi:cx="142.54568"
     sodipodi:cy="38.985416"
     sodipodi:rx="9.2681503"
     sodipodi:ry="8.4638891"
     d="M 151.81384 38.985416 A 9.2681503 8.4638891 0 1 1  133.27753,38.985416 A 9.2681503 8.4638891 0 1 1  151.81384 38.985416 z"
     transform="matrix(2.292808,0,0,-2.510676,-5.509562,651.0917)" />
  <path
     sodipodi:type="arc"
     style="fill:white;fill-opacity:1;fill-rule:evenodd;stroke:black;stroke-width:0.93568957;stroke-miterlimit:4;stroke-dasharray:none;stroke-dashoffset:0;stroke-opacity:1"
     id="path30858"
     sodipodi:cx="142.54568"
     sodipodi:cy="38.985416"
     sodipodi:rx="9.2681503"
     sodipodi:ry="8.4638891"
     d="M 151.81384 38.985416 A 9.2681503 8.4638891 0 1 1  133.27753,38.985416 A 9.2681503 8.4638891 0 1 1  151.81384 38.985416 z"
     transform="matrix(0,-2.292808,2.510676,0,-75.50717,626.8298)" />
  <path
     style="fill:white;fill-opacity:1;fill-rule:evenodd;stroke:black;stroke-width:2.1005969;stroke-miterlimit:4;stroke-dasharray:none;stroke-dashoffset:0;stroke-opacity:1"
     d="M 1.0503004,300.03503 C 1.0503004,308.12149 5.551265,315.10544 12.205005,318.69636 C 13.520653,308.2244 22.425979,300.10519 33.251618,300.10519 C 36.917257,300.10519 40.342139,301.0637 43.353992,302.70094 C 43.463618,301.82697 43.494302,300.93857 43.494302,300.03503 C 43.494302,299.1315 43.463618,298.2431 43.353992,297.36913 C 40.342139,299.00636 36.917257,299.96488 33.251618,299.96488 C 22.401966,299.96488 13.489605,291.80916 12.205005,281.30355 C 5.5504141,284.89422 1.0503004,291.94795 1.0503004,300.03503 z "
     id="path30860" />
  <path
     sodipodi:type="arc"
     style="fill:white;fill-opacity:1;fill-rule:evenodd;stroke:black;stroke-width:0.93568957;stroke-miterlimit:4;stroke-dasharray:none;stroke-dashoffset:0;stroke-opacity:1"
     id="path30864"
     sodipodi:cx="142.54568"
     sodipodi:cy="38.985416"
     sodipodi:rx="9.2681503"
     sodipodi:ry="8.4638891"
     d="M 151.81384 38.985416 A 9.2681503 8.4638891 0 1 1  133.27753,38.985416 A 9.2681503 8.4638891 0 1 1  151.81384 38.985416 z"
     transform="matrix(0,-2.292808,2.510676,0,-51.09168,648.1501)" />
  <path
     sodipodi:type="arc"
     style="fill:white;fill-opacity:1;fill-rule:evenodd;stroke:black;stroke-width:0.93568957;stroke-miterlimit:4;stroke-dasharray:none;stroke-dashoffset:0;stroke-opacity:1"
     id="path30866"
     sodipodi:cx="142.54568"
     sodipodi:cy="38.985416"
     sodipodi:rx="9.2681503"
     sodipodi:ry="8.4638891"
     d="M 151.81384 38.985416 A 9.2681503 8.4638891 0 1 1  133.27753,38.985416 A 9.2681503 8.4638891 0 1 1  151.81384 38.985416 z"
     transform="matrix(0,-2.292808,2.510676,0,-51.09168,605.5096)" />
  <path
     sodipodi:type="arc"
     style="fill:white;fill-opacity:1;fill-rule:evenodd;stroke:black;stroke-width:0.93568957;stroke-miterlimit:4;stroke-dasharray:none;stroke-dashoffset:0;stroke-opacity:1"
     id="path30870"
     sodipodi:cx="142.54568"
     sodipodi:cy="38.985416"
     sodipodi:rx="9.2681503"
     sodipodi:ry="8.4638891"
     d="M 151.81384 38.985416 A 9.2681503 8.4638891 0 1 1  133.27753,38.985416 A 9.2681503 8.4638891 0 1 1  151.81384 38.985416 z"
     transform="matrix(0,-2.292808,-2.510676,0,675.5072,626.8298)" />
  <path
     style="fill:white;fill-opacity:1;fill-rule:evenodd;stroke:black;stroke-width:2.1005969;stroke-miterlimit:4;stroke-dasharray:none;stroke-dashoffset:0;stroke-opacity:1"
     d="M 598.94972,300.03503 C 598.94972,308.12149 594.44876,315.10544 587.79501,318.69636 C 586.47937,308.2244 577.57404,300.10519 566.7484,300.10519 C 563.08276,300.10519 559.65788,301.0637 556.64603,302.70094 C 556.5364,301.82697 556.50572,300.93857 556.50572,300.03503 C 556.50572,299.1315 556.5364,298.2431 556.64603,297.36913 C 559.65788,299.00636 563.08276,299.96488 566.7484,299.96488 C 577.59805,299.96488 586.51042,291.80916 587.79501,281.30355 C 594.44961,284.89422 598.94972,291.94795 598.94972,300.03503 z "
     id="path30872" />
  <path
     sodipodi:type="arc"
     style="fill:white;fill-opacity:1;fill-rule:evenodd;stroke:black;stroke-width:0.93568957;stroke-miterlimit:4;stroke-dasharray:none;stroke-dashoffset:0;stroke-opacity:1"
     id="path30876"
     sodipodi:cx="142.54568"
     sodipodi:cy="38.985416"
     sodipodi:rx="9.2681503"
     sodipodi:ry="8.4638891"
     d="M 151.81384 38.985416 A 9.2681503 8.4638891 0 1 1  133.27753,38.985416 A 9.2681503 8.4638891 0 1 1  151.81384 38.985416 z"
     transform="matrix(0,-2.292808,-2.510676,0,651.0917,648.1501)" />
  <path
     sodipodi:type="arc"
     style="fill:white;fill-opacity:1;fill-rule:evenodd;stroke:black;stroke-width:0.93568957;stroke-miterlimit:4;stroke-dasharray:none;stroke-dashoffset:0;stroke-opacity:1"
     id="path30878"
     sodipodi:cx="142.54568"
     sodipodi:cy="38.985416"
     sodipodi:rx="9.2681503"
     sodipodi:ry="8.4638891"
     d="M 151.81384 38.985416 A 9.2681503 8.4638891 0 1 1  133.27753,38.985416 A 9.2681503 8.4638891 0 1 1  151.81384 38.985416 z"
     transform="matrix(0,-2.292808,-2.510676,0,651.0917,605.5096)" />
  <path
     sodipodi:type="arc"
     style="fill:white;fill-opacity:1;fill-rule:evenodd;stroke:black;stroke-width:0.93568957;stroke-miterlimit:4;stroke-dasharray:none;stroke-dashoffset:0;stroke-opacity:1"
     id="path30988"
     sodipodi:cx="142.54568"
     sodipodi:cy="38.985416"
     sodipodi:rx="9.2681503"
     sodipodi:ry="8.4638891"
     d="M 151.81384 38.985416 A 9.2681503 8.4638891 0 1 1  133.27753,38.985416 A 9.2681503 8.4638891 0 1 1  151.81384 38.985416 z"
     transform="matrix(1.62126,-1.62126,1.775316,1.775316,-196.6274,265.5799)" />
  <path
     style="fill:white;fill-opacity:1;fill-rule:evenodd;stroke:black;stroke-width:2.1005969;stroke-miterlimit:4;stroke-dasharray:none;stroke-dashoffset:0;stroke-opacity:1"
     d="M 88.585756,88.635399 C 82.867767,94.353387 81.112031,102.47445 83.27777,109.71852 C 91.612871,103.24403 103.65104,103.79989 111.30592,111.45478 C 113.89792,114.04678 115.6419,117.1463 116.61391,120.43371 C 117.30941,119.89324 117.9593,119.28674 118.5982,118.64784 C 119.23709,118.00895 119.84359,117.35905 120.38406,116.66355 C 117.09666,115.69155 113.99713,113.94756 111.40513,111.35556 C 103.73327,103.6837 103.19824,91.614748 109.71848,83.277806 C 102.47399,81.11129 94.304189,82.916966 88.585756,88.635399 z "
     id="path30990" />
  <path
     sodipodi:type="arc"
     style="fill:white;fill-opacity:1;fill-rule:evenodd;stroke:black;stroke-width:0.93568957;stroke-miterlimit:4;stroke-dasharray:none;stroke-dashoffset:0;stroke-opacity:1"
     id="path30994"
     sodipodi:cx="142.54568"
     sodipodi:cy="38.985416"
     sodipodi:rx="9.2681503"
     sodipodi:ry="8.4638891"
     d="M 151.81384 38.985416 A 9.2681503 8.4638891 0 1 1  133.27753,38.985416 A 9.2681503 8.4638891 0 1 1  151.81384 38.985416 z"
     transform="matrix(1.62126,-1.62126,1.775316,1.775316,-194.4387,297.92)" />
  <path
     sodipodi:type="arc"
     style="fill:white;fill-opacity:1;fill-rule:evenodd;stroke:black;stroke-width:0.93568957;stroke-miterlimit:4;stroke-dasharray:none;stroke-dashoffset:0;stroke-opacity:1"
     id="path30996"
     sodipodi:cx="142.54568"
     sodipodi:cy="38.985416"
     sodipodi:rx="9.2681503"
     sodipodi:ry="8.4638891"
     d="M 151.81384 38.985416 A 9.2681503 8.4638891 0 1 1  133.27753,38.985416 A 9.2681503 8.4638891 0 1 1  151.81384 38.985416 z"
     transform="matrix(1.62126,-1.62126,1.775316,1.775316,-164.2873,267.7685)" />
  <path
     sodipodi:type="arc"
     style="fill:white;fill-opacity:1;fill-rule:evenodd;stroke:black;stroke-width:0.93568957;stroke-miterlimit:4;stroke-dasharray:none;stroke-dashoffset:0;stroke-opacity:1"
     id="path31000"
     sodipodi:cx="142.54568"
     sodipodi:cy="38.985416"
     sodipodi:rx="9.2681503"
     sodipodi:ry="8.4638891"
     d="M 151.81384 38.985416 A 9.2681503 8.4638891 0 1 1  133.27753,38.985416 A 9.2681503 8.4638891 0 1 1  151.81384 38.985416 z"
     transform="matrix(1.62126,-1.62126,-1.775316,-1.775316,334.42,796.6273)" />
  <path
     style="fill:white;fill-opacity:1;fill-rule:evenodd;stroke:black;stroke-width:2.1005969;stroke-miterlimit:4;stroke-dasharray:none;stroke-dashoffset:0;stroke-opacity:1"
     d="M 511.3645,511.41414 C 505.64651,517.13213 497.52545,518.88787 490.28138,516.72213 C 496.75587,508.38703 496.20001,496.34886 488.54512,488.69398 C 485.95312,486.10198 482.8536,484.358 479.56619,483.38599 C 480.10666,482.69049 480.71316,482.0406 481.35206,481.4017 C 481.99095,480.76281 482.64085,480.15631 483.33635,479.61584 C 484.30835,482.90324 486.05234,486.00277 488.64434,488.59477 C 496.3162,496.26663 508.38515,496.80166 516.72209,490.28142 C 518.88861,497.52591 517.08293,505.69571 511.3645,511.41414 z "
     id="path31002" />
  <path
     sodipodi:type="arc"
     style="fill:white;fill-opacity:1;fill-rule:evenodd;stroke:black;stroke-width:0.93568957;stroke-miterlimit:4;stroke-dasharray:none;stroke-dashoffset:0;stroke-opacity:1"
     id="path31006"
     sodipodi:cx="142.54568"
     sodipodi:cy="38.985416"
     sodipodi:rx="9.2681503"
     sodipodi:ry="8.4638891"
     d="M 151.81384 38.985416 A 9.2681503 8.4638891 0 1 1  133.27753,38.985416 A 9.2681503 8.4638891 0 1 1  151.81384 38.985416 z"
     transform="matrix(1.62126,-1.62126,-1.775316,-1.775316,302.0799,794.4386)" />
  <path
     sodipodi:type="arc"
     style="fill:white;fill-opacity:1;fill-rule:evenodd;stroke:black;stroke-width:0.93568957;stroke-miterlimit:4;stroke-dasharray:none;stroke-dashoffset:0;stroke-opacity:1"
     id="path31008"
     sodipodi:cx="142.54568"
     sodipodi:cy="38.985416"
     sodipodi:rx="9.2681503"
     sodipodi:ry="8.4638891"
     d="M 151.81384 38.985416 A 9.2681503 8.4638891 0 1 1  133.27753,38.985416 A 9.2681503 8.4638891 0 1 1  151.81384 38.985416 z"
     transform="matrix(1.62126,-1.62126,-1.775316,-1.775316,332.2314,764.2872)" />
  <path
     sodipodi:type="arc"
     style="fill:white;fill-opacity:1;fill-rule:evenodd;stroke:black;stroke-width:0.93568957;stroke-miterlimit:4;stroke-dasharray:none;stroke-dashoffset:0;stroke-opacity:1"
     id="path31012"
     sodipodi:cx="142.54568"
     sodipodi:cy="38.985416"
     sodipodi:rx="9.2681503"
     sodipodi:ry="8.4638891"
     d="M 151.81384 38.985416 A 9.2681503 8.4638891 0 1 1  133.27753,38.985416 A 9.2681503 8.4638891 0 1 1  151.81384 38.985416 z"
     transform="matrix(-1.62126,-1.62126,1.775316,-1.775316,265.5798,796.6273)" />
  <path
     style="fill:white;fill-opacity:1;fill-rule:evenodd;stroke:black;stroke-width:2.1005969;stroke-miterlimit:4;stroke-dasharray:none;stroke-dashoffset:0;stroke-opacity:1"
     d="M 88.635299,511.41414 C 94.353287,517.13213 102.47435,518.88787 109.71842,516.72213 C 103.24393,508.38703 103.79979,496.34886 111.45468,488.69398 C 114.04668,486.10198 117.1462,484.358 120.43361,483.38599 C 119.89314,482.69049 119.28664,482.0406 118.64774,481.4017 C 118.00885,480.76281 117.35895,480.15631 116.66345,479.61584 C 115.69145,482.90324 113.94746,486.00277 111.35546,488.59477 C 103.6836,496.26663 91.614648,496.80166 83.277706,490.28142 C 81.11119,497.52591 82.916866,505.69571 88.635299,511.41414 z "
     id="path31014" />
  <path
     sodipodi:type="arc"
     style="fill:white;fill-opacity:1;fill-rule:evenodd;stroke:black;stroke-width:0.93568957;stroke-miterlimit:4;stroke-dasharray:none;stroke-dashoffset:0;stroke-opacity:1"
     id="path31018"
     sodipodi:cx="142.54568"
     sodipodi:cy="38.985416"
     sodipodi:rx="9.2681503"
     sodipodi:ry="8.4638891"
     d="M 151.81384 38.985416 A 9.2681503 8.4638891 0 1 1  133.27753,38.985416 A 9.2681503 8.4638891 0 1 1  151.81384 38.985416 z"
     transform="matrix(-1.62126,-1.62126,1.775316,-1.775316,297.9199,794.4386)" />
  <path
     sodipodi:type="arc"
     style="fill:white;fill-opacity:1;fill-rule:evenodd;stroke:black;stroke-width:0.93568957;stroke-miterlimit:4;stroke-dasharray:none;stroke-dashoffset:0;stroke-opacity:1"
     id="path31020"
     sodipodi:cx="142.54568"
     sodipodi:cy="38.985416"
     sodipodi:rx="9.2681503"
     sodipodi:ry="8.4638891"
     d="M 151.81384 38.985416 A 9.2681503 8.4638891 0 1 1  133.27753,38.985416 A 9.2681503 8.4638891 0 1 1  151.81384 38.985416 z"
     transform="matrix(-1.62126,-1.62126,1.775316,-1.775316,267.7684,764.2872)" />
  <path
     sodipodi:type="arc"
     style="fill:white;fill-opacity:1;fill-rule:evenodd;stroke:black;stroke-width:0.93568957;stroke-miterlimit:4;stroke-dasharray:none;stroke-dashoffset:0;stroke-opacity:1"
     id="path31024"
     sodipodi:cx="142.54568"
     sodipodi:cy="38.985416"
     sodipodi:rx="9.2681503"
     sodipodi:ry="8.4638891"
     d="M 151.81384 38.985416 A 9.2681503 8.4638891 0 1 1  133.27753,38.985416 A 9.2681503 8.4638891 0 1 1  151.81384 38.985416 z"
     transform="matrix(-1.62126,-1.62126,-1.775316,1.775316,796.6273,265.5799)" />
  <path
     style="fill:white;fill-opacity:1;fill-rule:evenodd;stroke:black;stroke-width:2.1005969;stroke-miterlimit:4;stroke-dasharray:none;stroke-dashoffset:0;stroke-opacity:1"
     d="M 511.41414,88.635399 C 517.13213,94.353387 518.88787,102.47445 516.72213,109.71852 C 508.38703,103.24403 496.34886,103.79989 488.69398,111.45478 C 486.10198,114.04678 484.358,117.1463 483.38599,120.43371 C 482.69049,119.89324 482.0406,119.28674 481.4017,118.64784 C 480.76281,118.00895 480.15631,117.35905 479.61584,116.66355 C 482.90324,115.69155 486.00277,113.94756 488.59477,111.35556 C 496.26663,103.6837 496.80166,91.614748 490.28142,83.277806 C 497.52591,81.11129 505.69571,82.916966 511.41414,88.635399 z "
     id="path31026" />
  <path
     sodipodi:type="arc"
     style="fill:white;fill-opacity:1;fill-rule:evenodd;stroke:black;stroke-width:0.93568957;stroke-miterlimit:4;stroke-dasharray:none;stroke-dashoffset:0;stroke-opacity:1"
     id="path31030"
     sodipodi:cx="142.54568"
     sodipodi:cy="38.985416"
     sodipodi:rx="9.2681503"
     sodipodi:ry="8.4638891"
     d="M 151.81384 38.985416 A 9.2681503 8.4638891 0 1 1  133.27753,38.985416 A 9.2681503 8.4638891 0 1 1  151.81384 38.985416 z"
     transform="matrix(-1.62126,-1.62126,-1.775316,1.775316,794.4386,297.92)" />
  <path
     sodipodi:type="arc"
     style="fill:white;fill-opacity:1;fill-rule:evenodd;stroke:black;stroke-width:0.93568957;stroke-miterlimit:4;stroke-dasharray:none;stroke-dashoffset:0;stroke-opacity:1"
     id="path31032"
     sodipodi:cx="142.54568"
     sodipodi:cy="38.985416"
     sodipodi:rx="9.2681503"
     sodipodi:ry="8.4638891"
     d="M 151.81384 38.985416 A 9.2681503 8.4638891 0 1 1  133.27753,38.985416 A 9.2681503 8.4638891 0 1 1  151.81384 38.985416 z"
     transform="matrix(-1.62126,-1.62126,-1.775316,1.775316,764.2872,267.7685)" />
  <path
     style="fill:white;fill-opacity:1;fill-rule:evenodd;stroke:black;stroke-width:2.24497199;stroke-miterlimit:4;stroke-dasharray:none;stroke-dashoffset:0;stroke-opacity:1"
     d="M 299.96494,56.455597 C 165.52873,56.455597 56.455645,165.52873 56.455647,299.96489 C 56.455647,434.40106 165.52874,543.54433 299.96494,543.54435 C 434.40116,543.54435 543.54442,434.40108 543.5444,299.96489 C 543.5444,165.52872 434.40118,56.455597 299.96494,56.455597 z M 299.96494,113.56207 C 402.9473,113.56207 486.57824,197.1229 486.57824,300.1052 C 486.57824,403.08752 402.94733,486.71849 299.96494,486.71849 C 196.98255,486.71852 113.42181,403.0875 113.42181,300.1052 C 113.42182,197.1229 196.98255,113.56207 299.96494,113.56207 z "
     id="path1873" />
  <path
     sodipodi:type="arc"
     style="fill:none;fill-opacity:1;fill-rule:evenodd;stroke:black;stroke-width:0.39306685;stroke-miterlimit:4;stroke-dasharray:none;stroke-dashoffset:0;stroke-opacity:1"
     id="path3645"
     sodipodi:cx="148.76805"
     sodipodi:cy="158.68591"
     sodipodi:rx="108.56047"
     sodipodi:ry="11.794224"
     d="M 257.32852 158.68591 A 108.56047 11.794224 0 1 1  40.207581,158.68591 A 108.56047 11.794224 0 1 1  257.32852 158.68591 z"
     transform="matrix(1.882537,0,0,17.32788,19.93867,-2449.691)" />
  <path
     sodipodi:type="arc"
     style="fill:white;fill-opacity:1;fill-rule:evenodd;stroke:black;stroke-width:0.303002;stroke-miterlimit:4;stroke-dasharray:none;stroke-dashoffset:0;stroke-opacity:1"
     id="path20158"
     sodipodi:cx="148.52457"
     sodipodi:cy="138.14624"
     sodipodi:rx="30.703779"
     sodipodi:ry="3.3484714"
     d="M 179.22835 138.14624 A 30.703779 3.3484714 0 1 1  117.82079,138.14624 A 30.703779 3.3484714 0 1 1  179.22835 138.14624 z"
     transform="matrix(2.446768,0,0,22.43562,-63.40513,-2799.397)" />
  <path
     style="fill:none;fill-opacity:0.75;fill-rule:evenodd;stroke:black;stroke-width:2.24497318;stroke-linecap:butt;stroke-linejoin:miter;stroke-miterlimit:4;stroke-dasharray:none;stroke-opacity:1"
     d="M 299.99725,262.0318 C 279.05082,262.0318 262.0451,279.03753 262.0451,299.98395 C 262.0451,301.53786 262.14996,303.06516 262.33175,304.57031 C 275.11216,329.43296 319.79426,328.9127 301.0674,300.44258 C 263.7844,297.08608 289.76696,252.67391 321.36205,268.62469 C 315.27471,264.46656 307.92032,262.0318 299.99725,262.0318 z "
     id="path19222" />
  <path
     style="fill:none;fill-opacity:1;fill-rule:evenodd;stroke:black;stroke-width:2.24497318;stroke-miterlimit:4;stroke-dasharray:none;stroke-dashoffset:0;stroke-opacity:1"
     d="M 307.41706,265.21709 C 283.29383,265.39792 269.54117,297.63436 301.09171,300.47479 C 319.81857,328.94491 275.13647,329.46518 262.35605,304.60251 C 264.62472,323.38642 280.62905,337.9683 300.02155,337.9683 C 320.96798,337.9683 337.95459,320.96256 337.95459,300.01615 C 337.95459,286.99278 331.39229,275.49171 321.38636,268.65687 C 316.52844,266.20439 311.80005,265.18426 307.41706,265.21709 z "
     id="path18333" />
  <path
     style="fill:none;fill-opacity:0.75;fill-rule:evenodd;stroke:black;stroke-width:2.24497318;stroke-linecap:butt;stroke-linejoin:miter;stroke-miterlimit:4;stroke-dasharray:none;stroke-opacity:1"
     d="M 311.53743,290.89705 C 304.46645,291.10551 301.61471,297.13275 300.6066,300.26087 C 300.76239,300.27657 300.90718,300.30397 301.06524,300.3182 C 319.7921,328.78832 275.11001,329.3086 262.32959,304.44593 C 264.59825,323.22983 280.60258,337.81171 299.99509,337.81171 C 306.99234,337.81171 313.55351,335.90311 319.18137,332.59473 C 335.99336,315.73339 332.19425,294.51466 314.767,291.16459 C 313.60771,290.94174 312.5257,290.86792 311.53743,290.89705 z "
     id="path19252" />
  <path
     sodipodi:type="arc"
     style="fill:none;fill-opacity:1;fill-rule:evenodd;stroke:black;stroke-width:0.26815772;stroke-miterlimit:4;stroke-dasharray:none;stroke-dashoffset:0;stroke-opacity:1"
     id="path23700"
     sodipodi:cx="148.96614"
     sodipodi:cy="150.2812"
     sodipodi:rx="26.486435"
     sodipodi:ry="1.7657623"
     d="M 175.45258 150.2812 A 26.486435 1.7657623 0 1 1  122.47971,150.2812 A 26.486435 1.7657623 0 1 1  175.45258 150.2812 z"
     transform="matrix(2.161598,0,0,32.42397,-22.00493,-4572.714)" />
</svg>
